<svg version="1.1" viewBox="0.0 0.0 350.0 350.0" fill="none" stroke="none" stroke-linecap="square" stroke-miterlimit="10" xmlns:xlink="http://www.w3.org/1999/xlink" xmlns="http://www.w3.org/2000/svg"><clipPath id="p.0"><path d="m0 0l350.0 0l0 350.0l-350.0 0l0 -350.0z" clip-rule="nonzero"/></clipPath><g clip-path="url(#p.0)"><path fill="#000000" fill-opacity="0.0" d="m0 0l350.0 0l0 350.0l-350.0 0z" fill-rule="evenodd"/><path fill="#000000" fill-opacity="0.0" d="m12.910761 -11.593176l310.01575 0l0 394.2992l-310.01575 0z" fill-rule="evenodd"/><path fill="#10b981" d="m261.72275 180.88245q-14.593735 13.921875 -18.17186 16.953125q-3.578125 3.015625 -4.671875 3.859375q2.34375 5.75 6.03125 14.09375q3.6875 8.328125 6.890625 15.265625q3.203125 6.921875 5.9687347 12.015625q2.765625 5.09375 4.84375 8.015625q2.8125 3.875 6.265625 6.8125q3.0469055 2.5 6.8906555 4.46875q3.859375 1.953125 8.296875 1.953125q4.28125 0 12.078125 1.046875q-2.0625 9.203125 -8.390625 14.90625q-6.328125 5.703125 -13.421875 10.328125q-7.0937805 4.625 -14.9219055 7.59375q-7.8281097 2.96875 -16.281235 2.96875q-7.265625 0 -13.1875 -4.171875q-5.921875 -4.15625 -11.078125 -13.640625q-1.75 -2.859375 -4.546875 -8.984375q-2.796875 -6.140625 -6.359375 -14.390625q-3.546875 -8.265625 -7.78125 -18.328125q-4.234375 -10.0625 -7.109375 -17.0625q-5.65625 1.703125 -17.109375 3.421875q-11.453125 1.71875 -24.65625 1.71875l-41.359383 0l-11.09375 25.96875q-0.828125 2.21875 -1.09375 4.296875q-0.265625 2.078125 0.140625 3.15625q0.40625 1.078125 1.75 1.890625q1.34375 0.796875 5.296875 0.796875q2.625 0 6.109375 -0.5625q3.484375 -0.5625 25.984383 -6.15625q-21.875008 20.671875 -28.250008 26.4375q-6.359375 5.75 -12.4375 9.515625q-6.078125 3.765625 -12.46875 5.53125q-6.375 1.765625 -14.4375 1.765625q-6.531246 0 -9.765621 -3.609375q-3.21875 -3.59375 -3.21875 -9.21875q0 -5.671875 2.65625 -13.09375q2.671875 -7.4375 6.499996 -16.0q3.171875 -7.6875 12.390625 -28.59375q3.9375 -8.90625 9.515625 -21.59375q5.59375 -12.6875 13.296875 -29.984375q7.703125 -17.296875 17.59375 -39.796875q9.890633 -22.500008 23.046883 -51.953133l6.234375 -5.15625q0 -2.921875 0.875 -6.984375q0.875 -4.078125 2.625 -7.28125q1.75 -3.21875 4.0 -5.640621q2.265625 -2.4375 4.765625 -4.609375q2.796875 -2.34375 6.59375 -5.375q6.296875 -5.09375 37.171875 -31.000002q-12.734375 24.359377 -13.328125 28.093752q-0.578125 3.71875 -0.578125 7.578125q0 4.109375 0.421875 7.874996q0.4375 3.765625 1.015625 6.65625q0.546875 3.296875 1.5 6.015625q1.65625 5.4375 5.703125 17.15625q4.0625 11.71875 9.703125 27.015625q5.65625 15.281258 12.296875 32.625008q6.640625 17.34375 11.859375 30.421875q0.53125 -0.078125 3.859375 -0.671875q3.34375 -0.609375 5.625 -0.90625q2.46875 -0.4375 19.92186 -3.453125zm-105.39061 -59.234383q-5.765625 18.265633 -15.28125 38.703133q-9.5 20.4375 -15.125008 33.5625q12.656258 -0.28125 29.484383 -1.171875q16.84375 -0.90625 23.984375 -1.53125q-2.359375 -5.765625 -6.84375 -17.515625q-4.484375 -11.765625 -8.34375 -22.375q-3.859375 -10.609375 -6.984375 -19.75q-3.125 -9.156258 -0.890625 -9.921883z" fill-rule="nonzero"/></g></svg>